<svg width="64" height="65" viewBox="0 0 64 65" fill="none" xmlns="http://www.w3.org/2000/svg">
<mask id="mask0_166_321" style="mask-type:alpha" maskUnits="userSpaceOnUse" x="0" y="0" width="64" height="65">
<rect y="0.5" width="64" height="64" fill="#D9D9D9"/>
</mask>
<g mask="url(#mask0_166_321)">
<path d="M23.0667 53.8333H16C14.5333 53.8333 13.2778 53.3111 12.2333 52.2667C11.1889 51.2222 10.6667 49.9667 10.6667 48.5V41.4333L5.53333 36.2333C5.04444 35.7 4.66667 35.1111 4.4 34.4667C4.13333 33.8222 4 33.1667 4 32.5C4 31.8333 4.13333 31.1778 4.4 30.5333C4.66667 29.8889 5.04444 29.3 5.53333 28.7667L10.6667 23.5667V16.5C10.6667 15.0333 11.1889 13.7778 12.2333 12.7333C13.2778 11.6889 14.5333 11.1667 16 11.1667H23.0667L28.2667 6.03333C28.8 5.54444 29.3889 5.16667 30.0333 4.9C30.6778 4.63333 31.3333 4.5 32 4.5C32.6667 4.5 33.3222 4.63333 33.9667 4.9C34.6111 5.16667 35.2 5.54444 35.7333 6.03333L40.9333 11.1667H48C49.4667 11.1667 50.7222 11.6889 51.7667 12.7333C52.8111 13.7778 53.3333 15.0333 53.3333 16.5V23.5667L58.4667 28.7667C58.9556 29.3 59.3333 29.8889 59.6 30.5333C59.8667 31.1778 60 31.8333 60 32.5C60 33.1667 59.8667 33.8222 59.6 34.4667C59.3333 35.1111 58.9556 35.7 58.4667 36.2333L53.3333 41.4333V48.5C53.3333 49.9667 52.8111 51.2222 51.7667 52.2667C50.7222 53.3111 49.4667 53.8333 48 53.8333H40.9333L35.7333 58.9667C35.2 59.4556 34.6111 59.8333 33.9667 60.1C33.3222 60.3667 32.6667 60.5 32 60.5C31.3333 60.5 30.6778 60.3667 30.0333 60.1C29.3889 59.8333 28.8 59.4556 28.2667 58.9667L23.0667 53.8333ZM25.3333 48.5L32 55.1667L38.6667 48.5H48V39.1667L54.6667 32.5L48 25.8333V16.5H38.6667L32 9.83333L25.3333 16.5H16V25.8333L9.33333 32.5L16 39.1667V48.5H25.3333Z" fill="white"/>
</g>
</svg>
