<svg width="65" height="64" viewBox="0 0 65 64" fill="none" xmlns="http://www.w3.org/2000/svg">
<mask id="mask0_166_400" style="mask-type:alpha" maskUnits="userSpaceOnUse" x="0" y="0" width="65" height="64">
<rect x="0.5" width="64" height="64" fill="#D9D9D9"/>
</mask>
<g mask="url(#mask0_166_400)">
<path d="M13.8333 56C13.0778 56 12.4444 55.7444 11.9333 55.2333C11.4222 54.7222 11.1667 54.0889 11.1667 53.3333V46.8667C11.1667 46.1556 11.3 45.4778 11.5667 44.8333C11.8333 44.1889 12.2111 43.6222 12.7 43.1333L46.3 9.6C46.8333 9.06667 47.4333 8.66667 48.1 8.4C48.7667 8.13333 49.4333 8 50.1 8C50.8111 8 51.4889 8.13333 52.1333 8.4C52.7778 8.66667 53.3444 9.06667 53.8333 9.6L57.5667 13.3333C58.1 13.8222 58.5 14.3889 58.7667 15.0333C59.0333 15.6778 59.1667 16.3556 59.1667 17.0667C59.1667 17.7333 59.0333 18.4 58.7667 19.0667C58.5 19.7333 58.1 20.3333 57.5667 20.8667L24.0333 54.4667C23.5444 54.9556 22.9778 55.3333 22.3333 55.6C21.6889 55.8667 21.0111 56 20.3 56H13.8333ZM16.5 50.6667H20.2333L46.4333 24.5333L44.5667 22.6L42.6333 20.7333L16.5 46.9333V50.6667ZM44.5667 22.6L42.6333 20.7333L46.4333 24.5333L44.5667 22.6ZM37.8333 56C41.1222 56 44.1667 55.1778 46.9667 53.5333C49.7667 51.8889 51.1667 49.6 51.1667 46.6667C51.1667 45.2444 50.8111 44.0111 50.1 42.9667C49.3889 41.9222 48.4556 40.9556 47.3 40.0667C46.6778 39.6222 46.0111 39.4 45.3 39.4C44.5889 39.4 43.9889 39.6667 43.5 40.2C43.0111 40.7333 42.7667 41.3889 42.7667 42.1667C42.7667 42.9444 43.0778 43.5556 43.7 44C44.3222 44.4889 44.8333 44.9333 45.2333 45.3333C45.6333 45.7333 45.8333 46.1778 45.8333 46.6667C45.8333 47.6889 45.0222 48.6111 43.4 49.4333C41.7778 50.2556 39.9222 50.6667 37.8333 50.6667C37.0778 50.6667 36.4444 50.9222 35.9333 51.4333C35.4222 51.9444 35.1667 52.5778 35.1667 53.3333C35.1667 54.0889 35.4222 54.7222 35.9333 55.2333C36.4444 55.7444 37.0778 56 37.8333 56ZM24.5 16C24.5 16.6222 24.1111 17.1889 23.3333 17.7C22.5556 18.2111 20.7667 19.1111 17.9667 20.4C14.4111 21.9556 11.9444 23.3667 10.5667 24.6333C9.18889 25.9 8.5 27.4667 8.5 29.3333C8.5 30.4889 8.76667 31.5111 9.3 32.4C9.83333 33.2889 10.5222 34.0667 11.3667 34.7333C11.9444 35.2222 12.5889 35.4333 13.3 35.3667C14.0111 35.3 14.6111 34.9778 15.1 34.4C15.5889 33.8222 15.8111 33.1778 15.7667 32.4667C15.7222 31.7556 15.4111 31.1556 14.8333 30.6667C14.5222 30.4444 14.2778 30.2222 14.1 30C13.9222 29.7778 13.8333 29.5556 13.8333 29.3333C13.8333 28.8 14.2333 28.2667 15.0333 27.7333C15.8333 27.2 17.5222 26.3778 20.1 25.2667C24.0111 23.5778 26.6111 22.0444 27.9 20.6667C29.1889 19.2889 29.8333 17.7333 29.8333 16C29.8333 13.5556 28.8556 11.6111 26.9 10.1667C24.9444 8.72222 22.3667 8 19.1667 8C17.1667 8 15.3778 8.35556 13.8 9.06667C12.2222 9.77778 11.0111 10.6444 10.1667 11.6667C9.67778 12.2444 9.47778 12.8889 9.56667 13.6C9.65556 14.3111 9.98889 14.8889 10.5667 15.3333C11.1444 15.8222 11.7889 16.0222 12.5 15.9333C13.2111 15.8444 13.8111 15.5556 14.3 15.0667C14.9222 14.4444 15.6111 14 16.3667 13.7333C17.1222 13.4667 18.0556 13.3333 19.1667 13.3333C20.9889 13.3333 22.3333 13.6 23.2 14.1333C24.0667 14.6667 24.5 15.2889 24.5 16Z" fill="white"/>
</g>
</svg>
