<svg width="300" height="111" viewBox="0 0 300 111" fill="none" xmlns="http://www.w3.org/2000/svg">
<g clip-path="url(#clip0_166_2248)">
<path d="M192.738 24.4958C188.269 22.8198 184.917 20.5852 181.006 19.4679C154.19 9.97068 126.257 5.50141 97.7658 4.94275C80.4473 4.94275 63.1289 7.17738 46.3691 12.2053C35.7546 14.9986 25.6987 19.4679 17.3188 26.7305C11.7323 30.6411 7.26298 36.2277 5.587 42.9316C3.91102 49.6355 4.46968 55.7807 9.49762 60.8087C11.7323 63.0433 14.5255 64.1606 17.8775 64.1606C19.5535 64.1606 21.7881 64.1606 22.3468 66.3953C21.2295 68.6299 18.9948 68.6299 17.3188 68.6299C8.93896 68.6299 1.11773 61.3673 0.00041014 51.8701C-1.11691 44.0489 1.67639 36.7863 6.70432 30.6411C11.1736 24.4958 17.3188 20.5852 23.4641 16.6746C37.4306 8.85336 53.073 4.94275 68.7155 2.70811C96.0898 -1.20251 122.905 1.03213 149.721 6.61872C164.246 9.41202 178.771 13.8813 192.738 20.0265C196.648 21.7025 200.559 21.7025 204.47 20.0265C227.933 9.97068 251.956 4.94275 277.654 7.17738C282.123 7.73604 286.593 8.85336 290.503 9.97068C292.179 10.5293 293.855 11.6467 294.972 12.764C299.442 16.6746 300.559 21.1439 296.648 25.6131C294.414 28.4064 291.621 30.6411 288.827 32.317C283.241 36.2277 276.537 37.9036 269.833 39.021C254.749 41.8143 239.665 39.5796 224.581 35.669C216.76 33.4344 209.498 30.6411 201.676 27.8478C199.442 27.2891 197.766 26.7305 195.531 27.8478C182.123 33.993 169.833 41.2556 157.542 49.6355C156.984 50.1941 156.425 50.7528 155.308 51.3115C158.66 52.9874 160.894 54.1048 163.688 55.7807C168.157 58.0154 172.626 60.25 176.537 63.0433C178.771 64.7193 181.006 64.7193 183.241 64.1606C191.621 61.926 200 61.3673 208.939 63.602C212.291 64.1606 215.643 65.8366 218.995 67.5126C221.788 69.1886 224.023 71.9818 222.905 75.3338C222.347 78.6858 219.553 79.8031 216.202 80.9204C210.056 82.0377 203.911 80.9204 198.324 79.2444C192.738 77.0098 187.71 74.7751 182.682 71.9818C180.447 70.8645 178.213 70.3059 175.419 71.4232C164.805 75.3338 155.866 81.4791 148.045 89.8589C145.81 92.0936 144.134 95.4455 143.017 98.2388C141.341 103.267 143.576 106.06 149.162 106.619C150.838 106.619 153.073 106.06 154.749 108.853C154.19 109.412 153.632 110.529 152.514 110.529C148.604 111.647 144.134 111.088 140.783 108.295C137.431 105.501 136.872 102.149 137.989 98.2388C139.107 93.2109 141.9 88.7416 145.81 84.831C153.073 78.6858 160.894 72.5405 169.833 68.6299C170.95 68.0712 172.067 67.5126 173.743 66.3953C165.922 61.3673 158.101 56.8981 149.721 54.1048C148.045 55.2221 146.369 55.7807 145.252 56.8981C139.107 60.8087 132.961 64.7193 126.816 68.0712C122.347 70.3059 117.319 72.5405 112.291 73.6578C108.939 74.7752 105.028 74.7751 101.676 74.2165C92.7378 72.5405 88.8272 62.4846 94.4138 55.2221C97.2071 51.3115 101.676 49.0768 106.146 47.9595C115.643 45.1662 125.699 45.1662 135.196 46.2835C139.665 46.8422 144.134 47.9595 148.604 49.0768C164.805 41.2556 178.213 32.8757 192.738 24.4958ZM206.704 23.9372C208.38 24.4958 209.498 25.6131 210.615 25.6131C216.76 27.8478 222.347 29.5238 228.492 31.1997C241.341 34.5517 254.19 36.7863 267.598 34.5517C274.302 33.4344 280.447 32.317 286.034 28.9651C288.827 27.2891 291.621 25.0545 293.855 22.8198C296.09 21.1439 296.09 18.3506 293.297 16.1159C292.179 14.9986 291.062 13.8813 289.386 13.8813C285.475 12.764 281.565 11.6467 277.654 11.088C253.632 8.85336 231.285 13.3226 208.939 22.8198C208.939 22.8198 207.822 23.3785 206.704 23.9372ZM146.369 53.5461C144.693 52.9874 144.134 52.4288 143.576 52.4288C131.285 49.6355 119.553 49.6355 107.822 52.9874C105.587 53.5461 102.794 55.2221 101.118 56.8981C98.3244 59.1327 97.7658 61.926 98.3244 65.2779C99.4417 68.6299 101.676 70.3059 104.47 70.8645C106.146 71.4232 108.38 71.4232 110.056 70.8645C114.526 69.7472 118.436 69.1886 122.347 66.9539C130.168 63.0433 137.431 58.574 146.369 53.5461ZM220.671 74.2165C217.319 66.9539 197.766 63.602 188.269 68.6299C195.531 73.6578 203.352 76.4511 212.291 77.0098C215.643 77.0098 218.436 77.0098 220.671 74.2165Z" fill="url(#paint0_linear_166_2248)"/>
</g>
<defs>
<linearGradient id="paint0_linear_166_2248" x1="-0.244141" y1="55.9046" x2="299.039" y2="55.9046" gradientUnits="userSpaceOnUse">
<stop stop-color="#C79962"/>
<stop offset="1" stop-color="#835F33"/>
</linearGradient>
<clipPath id="clip0_166_2248">
<rect width="300" height="110.056" fill="white" transform="translate(0 0.472656)"/>
</clipPath>
</defs>
</svg>
