<svg width="64" height="64" viewBox="0 0 64 64" fill="none" xmlns="http://www.w3.org/2000/svg">
<mask id="mask0_166_339" style="mask-type:alpha" maskUnits="userSpaceOnUse" x="0" y="0" width="64" height="64">
<rect width="64" height="64" fill="#D9D9D9"/>
</mask>
<g mask="url(#mask0_166_339)">
<path d="M21.3327 53.334H42.666V45.334C42.666 42.4007 41.6216 39.8895 39.5327 37.8007C37.4438 35.7118 34.9327 34.6673 31.9993 34.6673C29.066 34.6673 26.5549 35.7118 24.466 37.8007C22.3771 39.8895 21.3327 42.4007 21.3327 45.334V53.334ZM13.3327 58.6673C12.5771 58.6673 11.9438 58.4118 11.4327 57.9007C10.9216 57.3895 10.666 56.7562 10.666 56.0007C10.666 55.2451 10.9216 54.6118 11.4327 54.1007C11.9438 53.5895 12.5771 53.334 13.3327 53.334H15.9993V45.334C15.9993 42.6229 16.6327 40.0784 17.8993 37.7007C19.166 35.3229 20.9327 33.4229 23.1993 32.0007C20.9327 30.5784 19.166 28.6784 17.8993 26.3007C16.6327 23.9229 15.9993 21.3784 15.9993 18.6673V10.6673H13.3327C12.5771 10.6673 11.9438 10.4118 11.4327 9.90065C10.9216 9.38954 10.666 8.75621 10.666 8.00065C10.666 7.2451 10.9216 6.61176 11.4327 6.10065C11.9438 5.58954 12.5771 5.33398 13.3327 5.33398H50.666C51.4216 5.33398 52.0549 5.58954 52.566 6.10065C53.0771 6.61176 53.3327 7.2451 53.3327 8.00065C53.3327 8.75621 53.0771 9.38954 52.566 9.90065C52.0549 10.4118 51.4216 10.6673 50.666 10.6673H47.9993V18.6673C47.9993 21.3784 47.366 23.9229 46.0993 26.3007C44.8327 28.6784 43.066 30.5784 40.7993 32.0007C43.066 33.4229 44.8327 35.3229 46.0993 37.7007C47.366 40.0784 47.9993 42.6229 47.9993 45.334V53.334H50.666C51.4216 53.334 52.0549 53.5895 52.566 54.1007C53.0771 54.6118 53.3327 55.2451 53.3327 56.0007C53.3327 56.7562 53.0771 57.3895 52.566 57.9007C52.0549 58.4118 51.4216 58.6673 50.666 58.6673H13.3327Z" fill="white"/>
</g>
</svg>
